<?xml version="1.0" encoding="UTF-8" standalone="no"?>
<!-- Created with Inkscape (http://www.inkscape.org/) -->

<svg
   version="1.1"
   id="svg25"
   width="50"
   height="50"
   viewBox="0 0 360 360"
   sodipodi:docname="microbloging.svg"
   inkscape:version="1.1.2 (b8e25be8, 2022-02-05)"
   xmlns:inkscape="http://www.inkscape.org/namespaces/inkscape"
   xmlns:sodipodi="http://sodipodi.sourceforge.net/DTD/sodipodi-0.dtd"
   xmlns="http://www.w3.org/2000/svg"
   xmlns:svg="http://www.w3.org/2000/svg">
  <defs
     id="defs29" />

  <g
     inkscape:groupmode="layer"
     inkscape:label="Image"
     id="g31">
    <g
       id="g431"
       transform="matrix(1.3258683,0,0,1.2799344,-18.714531,-67.267422)">
      <path
         style="fill:#fff;fill-opacity:1;stroke-width:0.703197"
         d="m 86.501435,266.59245 c -1.937445,-0.58094 -4.343862,-1.53237 -5.347594,-2.1143 -3.159945,-1.83201 -7.449853,-6.36118 -9.256435,-9.7727 -1.520529,-2.87134 -1.640816,-3.55183 -0.952783,-5.39006 0.433095,-1.15712 1.533273,-2.47991 2.444841,-2.93956 1.204491,-0.60734 25.26521,-0.83571 88.049676,-0.83571 95.24591,0 89.95722,0.24995 98.31647,-4.64651 10.09946,-5.91581 18.4369,-20.32254 18.4369,-31.85817 0,-5.5564 3.24714,-8.90774 6.86383,-7.08409 3.0463,1.53604 3.28118,3.43509 3.02493,24.45678 -0.22377,18.35568 -0.32928,19.75642 -1.79522,23.83291 -2.17294,6.04247 -8.37203,12.94711 -13.77536,15.3432 l -4.01069,1.77852 -89.23797,0.14298 c -75.52113,0.121 -89.779434,-0.0194 -92.760595,-0.91329 z M 66.447959,233.30368 c -5.134936,-1.53971 -7.353758,-3.01061 -11.555064,-7.66006 -2.562551,-2.83588 -4.268038,-5.56463 -5.368413,-8.58934 l -1.612719,-4.43305 v -61.3993 -61.399287 l 1.58815,-4.360378 c 2.173032,-5.966214 8.465619,-12.930011 13.856775,-15.334833 l 3.940101,-1.757553 h 90.574871 90.57486 l 3.91359,1.746577 c 5.46798,2.440277 11.70777,9.311649 13.86434,15.267684 l 1.6071,4.438503 v 61.399287 61.3993 l -1.57823,4.33104 c -2.20507,6.05123 -8.41415,12.95659 -13.7961,15.3432 l -4.0107,1.77852 -89.23797,0.14298 c -75.52113,0.121 -89.77943,-0.0194 -92.760591,-0.91329 z M 133.66855,211.0795 c 20.31503,-4.6205 37.11111,-22.1174 42.5475,-44.3228 1.75438,-7.1659 2.09813,-19.61751 0.74582,-27.01539 -5.26887,-28.82359 -27.9328,-49.548791 -54.1838,-49.548791 -30.252379,0 -55.147056,27.550111 -55.147056,61.029411 0,38.25878 32.295468,67.53195 66.037536,59.85757 z m -18.91187,-10.96096 c -9.61349,-2.05166 -17.299551,-6.7449 -24.346556,-14.86643 l -4.198994,-4.83924 1.187363,-2.01971 c 3.748777,-6.37668 9.667248,-12.37772 15.493217,-15.70937 1.5625,-0.89354 2.84091,-1.76723 2.84091,-1.94155 0,-0.17432 -1.17699,-1.96477 -2.61553,-3.97879 -5.203911,-7.28568 -6.559437,-17.94968 -3.421372,-26.91615 2.100692,-6.00236 8.358802,-12.93245 13.794662,-15.2759 5.45174,-2.3503 13.11353,-2.35484 18.54888,-0.0109 5.51,2.37605 11.7155,9.21392 13.80221,15.20875 3.1553,9.06467 1.81633,19.68783 -3.40242,26.99428 -1.43854,2.01401 -2.61552,3.80447 -2.61552,3.97879 0,0.17432 1.27841,1.04801 2.84091,1.94155 5.8541,3.34773 11.7416,9.32899 15.53867,15.78615 l 1.23282,2.09648 -5.62839,6.04738 c -8.49784,9.1304 -17.26747,13.40923 -29.02412,14.16127 -3.09485,0.19796 -7.31875,-0.0786 -10.02674,-0.65653 z M 246.5652,188.45039 c 1.98289,-2.06152 2.02433,-5.50141 0.0937,-7.7757 l -1.45342,-1.71211 h -27.0797 c -26.88338,0 -27.09092,0.0117 -28.6268,1.60845 -1.98288,2.06152 -2.02432,5.5014 -0.0937,7.77569 l 1.45343,1.71212 h 27.0797 c 26.88337,0 27.09092,-0.0117 28.62679,-1.60845 z m 0,-33.28877 c 1.98289,-2.06153 2.02433,-5.50141 0.0937,-7.7757 l -1.45342,-1.71211 h -27.0797 c -26.88338,0 -27.09092,0.0117 -28.6268,1.60844 -1.98288,2.06152 -2.02432,5.50141 -0.0937,7.7757 l 1.45343,1.71211 h 27.0797 c 26.88337,0 27.09092,-0.0117 28.62679,-1.60844 z m 0,-33.28878 c 1.98289,-2.06152 2.02433,-5.5014 0.0937,-7.77569 l -1.45342,-1.71212 h -27.0797 c -26.88338,0 -27.09092,0.0117 -28.6268,1.60845 -1.98288,2.06152 -2.02432,5.50141 -0.0937,7.7757 l 1.45343,1.71211 h 27.0797 c 26.88337,0 27.09092,-0.0117 28.62679,-1.60845 z"
         id="path433" />
    </g>
  </g>
</svg>
